<svg width="443" height="41" viewBox="0 0 443 41" fill="none" xmlns="http://www.w3.org/2000/svg">
<g clip-path="url(#clip0_32_223)">
<path d="M406.556 38.2612L396.998 2.35746H402.139L406.61 20.5212C407.728 24.997 408.735 29.4699 409.405 32.9319H409.516C410.132 29.364 411.303 25.0999 412.589 20.4667L417.619 2.35443H422.706L427.288 20.5726C428.349 24.8336 429.355 29.0946 429.914 32.8775H430.025C430.807 28.9342 431.87 24.9395 433.045 20.4667L438.021 2.35443H442.997L432.321 38.2582H427.234L422.484 19.5588C421.309 14.977 420.528 11.4605 420.023 7.83804H419.912C419.242 11.406 418.404 14.9226 417.006 19.5588L411.64 38.2582H406.553L406.556 38.2612Z" fill="black"/>
<path d="M376.673 41C373.774 41 371.322 40.2888 369.312 38.8695C367.302 37.4502 365.781 35.6163 364.746 33.3647C363.711 31.1132 363.193 28.6921 363.193 26.0956C363.193 23.499 363.73 20.9267 364.81 18.3695C365.886 15.8153 367.544 13.5638 369.779 11.6179C372.014 9.67198 374.831 8.31318 378.226 7.54148C378.68 7.45977 379.137 7.39016 379.591 7.32964C380.045 7.26911 380.544 7.23885 381.08 7.23885C381.992 7.23885 382.881 7.3599 383.751 7.60503C384.621 7.84713 385.367 8.29502 385.986 8.94265C386.44 9.34817 386.669 9.63264 386.669 9.79303C386.669 9.95342 386.628 10.0351 386.545 10.0351C386.421 10.0351 386.266 9.97461 386.078 9.85356C385.891 9.7325 385.694 9.65079 385.488 9.61145C384.741 9.32698 383.913 9.18475 383.004 9.18475C382.757 9.18475 382.519 9.19383 382.29 9.21501C382.061 9.23619 381.845 9.26646 381.639 9.3058C379.194 9.87474 377.013 10.8462 375.088 12.2262C373.164 13.6061 371.525 15.2464 370.182 17.1529C368.836 19.0595 367.81 21.0568 367.109 23.145C366.404 25.2331 366.051 27.2516 366.051 29.1975C366.051 31.1434 366.404 32.8472 367.109 34.43C367.813 36.0127 368.899 37.2686 370.37 38.2007C371.84 39.1328 373.713 39.5988 375.99 39.5988C376.612 39.5988 377.273 39.5595 377.978 39.4778C378.683 39.3961 379.426 39.275 380.213 39.1116C381.868 38.7454 383.557 37.9646 385.275 36.7693C386.993 35.5739 388.638 34.094 390.213 32.3297C391.784 30.5654 393.185 28.6407 394.404 26.5526C395.623 24.4644 396.598 22.3037 397.322 20.0733C398.046 17.8429 398.408 15.6731 398.408 13.5638C398.408 9.50856 397.259 6.47623 394.96 4.46981C392.661 2.46339 389.565 1.45866 385.675 1.45866C383.106 1.45866 380.55 1.91563 378.003 2.82654C375.457 3.73745 373.272 4.84507 371.452 6.14031C369.589 7.39924 367.902 8.88817 366.391 10.6101C364.879 12.3351 363.647 14.1599 362.695 16.0847C361.742 18.0124 361.164 19.9462 360.955 21.8951C360.955 22.343 360.85 22.5639 360.643 22.5639C360.478 22.5639 360.31 22.3733 360.145 21.9859C359.98 21.6016 359.897 21.2051 359.897 20.7996C359.897 18.5299 360.383 16.3601 361.358 14.2901C362.33 12.2231 363.644 10.3166 365.302 8.57344C366.956 6.8303 368.842 5.32019 370.954 4.0431C373.066 2.76601 375.269 1.77339 377.568 1.06222C379.867 0.354071 382.112 -0.00302986 384.306 -0.00302986C387.618 -0.0423715 390.568 0.544726 393.156 1.76129C395.744 2.97785 397.783 4.74217 399.275 7.05425C400.764 9.36632 401.511 12.1626 401.511 15.4491C401.511 18.7357 400.898 21.653 399.678 24.4523C398.456 27.2516 396.843 29.7544 394.833 31.9635C392.823 34.1757 390.609 36.0097 388.187 37.4683C385.764 38.927 383.351 39.9226 380.95 40.4492C380.162 40.652 379.429 40.7942 378.746 40.8759C378.064 40.9576 377.368 40.997 376.666 40.997L376.673 41Z" fill="#ED7948"/>
<path d="M0 38.2612V2.35745H5.30923L17.382 20.5212C20.1763 24.7307 22.3578 28.5105 24.1456 32.1875L24.2567 32.133C23.809 27.3394 23.6978 22.9694 23.6978 17.3769V2.35745H28.2799V38.2612H23.3612L11.3996 20.043C8.77357 16.0483 6.25867 11.9447 4.35662 8.05593L4.18832 8.1104C4.46776 12.6377 4.57889 16.9532 4.57889 22.921V38.2642H0V38.2612Z" fill="black"/>
<path d="M68.9724 19.9341C68.9724 32.2934 61.0911 38.8453 51.476 38.8453C41.861 38.8453 34.5386 31.4945 34.5386 20.6271C34.5386 9.2271 41.9721 1.77036 52.0349 1.77036C62.0977 1.77036 68.9724 9.28158 68.9724 19.9341ZM39.7398 20.5212C39.7398 28.1928 44.0996 35.0624 51.7586 35.0624C59.4177 35.0624 63.8314 28.2957 63.8314 20.1459C63.8314 13.0069 59.9194 5.55018 51.8126 5.55018C43.7059 5.55018 39.7398 12.6347 39.7398 20.5181V20.5212Z" fill="black"/>
<path d="M80.1529 2.35745V23.611C80.1529 31.6548 83.8966 35.0655 88.9296 35.0655C94.5183 35.0655 98.0969 31.5489 98.0969 23.611V2.35745H103.016V23.2932C103.016 34.321 96.922 38.8483 88.7613 38.8483C81.0483 38.8483 75.2342 34.6387 75.2342 23.5051V2.35745H80.1529Z" fill="black"/>
<path d="M111.456 2.83562C113.917 2.35747 117.435 2.09116 120.791 2.09116C125.989 2.09116 129.343 2.99601 131.689 5.02059C133.591 6.61847 134.652 9.06975 134.652 11.8388C134.652 16.581 131.521 19.7222 127.552 21.0024V21.1628C130.457 22.1221 132.191 24.6793 133.086 28.4077C134.315 33.4162 135.211 36.8782 135.992 38.2612H130.962C130.346 37.2504 129.508 34.1606 128.447 29.6847C127.329 24.7307 125.316 22.8665 120.902 22.7062H116.32V38.2612H111.459V2.83562H111.456ZM116.317 19.1896H121.293C126.491 19.1896 129.79 16.472 129.79 12.3714C129.79 7.73819 126.269 5.71361 121.128 5.65914C118.781 5.65914 117.105 5.87098 116.32 6.08584V19.1896H116.317Z" fill="black"/>
<path d="M146.388 2.35745V38.2612H141.527V2.35745H146.388Z" fill="black"/>
<path d="M154.215 32.6142C156.397 33.8913 159.582 34.9565 162.935 34.9565C167.911 34.9565 170.816 32.4538 170.816 28.8313C170.816 25.4752 168.803 23.5565 163.716 21.6923C157.569 19.6133 153.768 16.5779 153.768 11.518C153.768 5.92543 158.629 1.77036 165.952 1.77036C169.81 1.77036 172.604 2.62377 174.281 3.52862L172.941 7.31147C171.712 6.67292 169.197 5.60767 165.786 5.60767C160.645 5.60767 158.686 8.53711 158.686 10.9884C158.686 14.3445 160.979 15.9969 166.177 17.9125C172.55 20.2579 175.792 23.1873 175.792 28.4591C175.792 34.0002 171.489 38.7938 162.602 38.7938C158.969 38.7938 155 37.7831 152.986 36.5029L154.215 32.6142Z" fill="black"/>
<path d="M187.303 2.35745V17.3799H205.523V2.35745H210.442V38.2612H205.523V21.4291H187.303V38.2612H182.441V2.35745H187.303Z" fill="black"/>
<path d="M235.597 6.29766H224.14V2.35745H252.033V6.30069H240.519V38.2642H235.6V6.29766H235.597Z" fill="black"/>
<path d="M286.908 19.9341C286.908 32.2934 279.027 38.8453 269.412 38.8453C259.797 38.8453 252.474 31.4945 252.474 20.6271C252.474 9.2271 259.908 1.77036 269.971 1.77036C280.033 1.77036 286.908 9.28158 286.908 19.9341ZM257.675 20.5212C257.675 28.1928 262.035 35.0624 269.694 35.0624C277.353 35.0624 281.767 28.2957 281.767 20.1459C281.767 13.0069 277.855 5.55018 269.748 5.55018C261.642 5.55018 257.675 12.6347 257.675 20.5181V20.5212Z" fill="black"/>
<path d="M333.748 36.6633C331.57 37.4078 327.264 38.6334 322.177 38.6334C316.474 38.6334 311.781 37.2474 308.091 33.8913C304.849 30.9074 302.836 26.1137 302.836 20.5212C302.893 9.81421 310.606 1.98221 323.238 1.98221C327.597 1.98221 331.008 2.88707 332.627 3.63456L331.452 7.4174C329.439 6.56399 326.924 5.874 323.123 5.874C313.956 5.874 307.977 11.3092 307.977 20.3093C307.977 29.3095 313.734 34.7992 322.51 34.7992C325.695 34.7992 327.877 34.3725 328.994 33.8398V23.1329H321.335V19.4045H333.745V36.6633H333.748Z" fill="black"/>
<path d="M341.182 2.83562C343.642 2.35747 347.161 2.09116 350.517 2.09116C355.715 2.09116 359.068 2.99601 361.418 5.02059C363.317 6.61847 364.381 9.06975 364.381 11.8388C364.381 16.581 361.25 19.7222 357.281 21.0024V21.1628C360.186 22.1221 361.92 24.6793 362.815 28.4077C364.044 33.4162 364.94 36.8782 365.721 38.2612H360.691C360.075 37.2504 359.237 34.1606 358.176 29.6847C357.058 24.7307 355.045 22.8665 350.631 22.7062H346.049V38.2612H341.188V2.83562H341.182ZM346.043 19.1896H351.019C356.217 19.1896 359.516 16.472 359.516 12.3714C359.516 7.73819 355.995 5.71361 350.854 5.65914C348.507 5.65914 346.831 5.87098 346.046 6.08584V19.1896H346.043Z" fill="black"/>
</g>
<defs>
<clipPath id="clip0_32_223">
<rect width="443" height="41" fill="white"/>
</clipPath>
</defs>
</svg>
