<svg width="180" height="47" viewBox="0 0 180 47" fill="none" xmlns="http://www.w3.org/2000/svg">
<g clip-path="url(#clip0_34_60)">
<path d="M68.6751 7.24967C68.5823 7.28265 68.4787 7.28265 68.375 7.24967C68.2659 7.21119 68.1895 7.12325 68.1404 6.99134C68.0749 6.81545 68.1186 6.65056 68.2822 6.49666L76.6354 0.00537109C76.7773 0.181257 76.9137 0.357143 77.0337 0.516539C77.1537 0.675936 77.252 0.851822 77.3174 1.02221C77.4593 1.40147 77.4702 1.79171 77.3611 2.19295C77.181 2.78657 76.7609 3.20979 76.1007 3.45713C75.6915 3.56156 75.0914 3.76493 74.2948 4.06724C72.4616 4.75979 70.923 5.57326 69.6899 6.50216C69.0897 6.95836 68.7515 7.21119 68.6805 7.25517L68.6751 7.24967Z" fill="black"/>
<path d="M26.0526 10.0532L25.5342 9.75639C23.4773 8.56916 21.6877 8.06349 19.5544 8.06349C15.2933 8.06349 11.7141 10.5644 9.04065 15.3518V7.63477L7.40929 8.51969C6.38356 9.07483 5.39056 9.48706 4.38665 9.77837C3.09903 10.1301 1.96417 10.317 1.10212 10.317H0V13.1917H1.42948C2.83168 13.1917 2.9408 17.6548 2.9408 19.0234V38.1949C2.9408 40.9926 2.72256 42.779 2.29153 43.51C2.12785 43.7848 2.0351 43.8343 1.23852 43.8343H0V46.7749H11.9869V43.8343H10.7538C9.95726 43.8343 9.86451 43.7848 9.70083 43.51C9.2698 42.779 9.05156 40.9871 9.05156 38.1949V22.3322C10.7866 16.1103 14.1802 12.1034 17.7103 12.1034C20.8039 12.1034 22.8935 16.2642 23.6519 18.0505L23.9847 18.842L24.825 18.7211C25.1687 18.6716 25.2833 18.6441 25.4851 18.5782C25.5397 18.5617 25.6106 18.5342 25.7361 18.5012L26.5982 18.2539L26.0526 10.0642V10.0532Z" fill="black"/>
<path d="M79.418 43.8726C78.6323 43.8726 78.5396 43.8232 78.3814 43.5539C77.9558 42.8338 77.743 41.0695 77.7375 38.3158V8.21729L76.128 9.09122C75.1186 9.63537 74.142 10.0421 73.149 10.3279C71.8832 10.6742 70.7647 10.8611 69.9136 10.8611H68.8224V13.6917H70.23C71.6104 13.6917 71.7195 18.0889 71.7195 19.4355V38.3158C71.7195 41.0695 71.5068 42.8283 71.0812 43.5539C70.923 43.8232 70.8302 43.8726 70.0445 43.8726H68.8278V46.7693H80.6347V43.8726H79.418Z" fill="black"/>
<path d="M112.061 37.2109C111.75 40.5857 111.483 43.4988 102.393 43.4988H94.4985L116.383 8.58545H88.4259L87.6348 18.5945L90.4392 18.8748L90.521 17.7535C90.7775 14.3567 90.9957 11.4216 100.124 11.4216H107.517L85.567 46.3954H114.157L114.959 36.2105H112.154L112.061 37.2109Z" fill="black"/>
<path d="M145.032 37.0954C143.221 40.9814 139.975 43.1195 135.893 43.1195C128.119 43.1195 125.347 34.8474 125.347 27.1084C125.347 25.8497 125.412 24.5525 125.56 23.2664L142.964 23.6456L148.551 23.816L148.284 22.4584C148.24 22.2495 148.24 22.0736 148.24 21.8483V21.7274C146.844 8.91518 136.395 8.2666 134.317 8.2666C125.314 8.2666 119.263 15.8407 119.263 27.1084C119.263 39.0136 125.32 46.7087 134.699 46.7087C137.372 46.7087 143.952 45.8842 147.389 38.2716L147.771 37.4197L145.567 35.9411L145.027 37.0954H145.032ZM134.257 11.0973C136.865 11.0973 141.208 12.3944 141.846 20.826L125.893 21.0568C126.913 15.6978 129.45 11.0973 134.257 11.0973Z" fill="black"/>
<path d="M168.564 24.6516C163.801 22.6674 159.687 20.958 159.687 17.094C159.687 14.791 160.587 13.1036 162.372 12.0758C164.025 11.1249 165.749 11.0974 165.771 11.0974C170.588 11.0974 173.753 14.1919 175.733 20.8316L176.017 21.788L176.988 21.5901C177.174 21.5516 177.25 21.5351 177.321 21.5131C177.37 21.5021 177.425 21.4856 177.556 21.4637L178.489 21.2768L177.959 12.8398L177.632 12.5375C174.653 9.82222 170.348 8.26123 165.831 8.26123C157.865 8.26123 154.237 13.3949 154.237 18.1658C154.237 24.9814 160.009 27.2404 165.105 29.2356C169.906 31.1154 174.047 32.7368 174.047 37.4308C174.047 39.3655 173.382 43.8726 167.217 43.8726H166.775C161.837 43.8726 158.76 40.8606 156.49 33.7977L156.244 33.0392H155.197C155.017 33.0392 154.831 33.0611 154.537 33.1601L153.735 33.4294L154.324 42.0753L154.651 42.3721C156.665 44.1914 162.082 46.7088 167.015 46.7088C173.267 46.7088 179.995 43.3505 179.995 35.9797C179.995 29.417 173.917 26.8831 168.559 24.6516H168.564Z" fill="black"/>
<path d="M54.0311 46.9999C52.7926 46.9999 51.6468 46.7085 50.5883 46.1204C49.5299 45.5323 48.7497 44.433 48.2368 42.8171C48.0185 42.1575 47.9094 41.2396 47.9094 40.0634C47.9094 38.4529 48.1277 36.6501 48.5641 34.6714C49.0006 32.6926 49.4753 31.0052 49.9827 29.6091C49.6172 29.7575 48.9461 30.4006 47.964 31.5329C46.9819 32.6707 45.7816 34.0283 44.3575 35.6058C42.939 37.1832 41.3731 38.7607 39.6599 40.3382C37.9467 41.9157 36.1789 43.2183 34.3621 44.2461C32.5398 45.274 30.7557 45.7851 29.0097 45.7851C27.8421 45.7851 26.6091 45.4389 25.2942 44.7408C23.9847 44.0428 22.9262 43.1469 22.1242 42.0421C21.033 40.5745 20.4874 39.0685 20.4874 37.5295C20.4874 35.5508 21.1585 33.4951 22.5061 31.368C23.8538 29.2409 25.5997 27.1687 27.7494 25.1515C29.8991 23.1343 32.1906 21.2985 34.6294 19.6496C37.0683 18.0007 39.398 16.6046 41.6186 15.4668C43.8392 14.3291 45.6397 13.576 47.0255 13.2133C48.4823 12.7736 50.1191 12.5537 51.9414 12.5537C52.9617 12.5537 54.0147 12.6801 55.1114 12.9385C56.2026 13.1968 57.1138 13.62 57.8449 14.2026C58.4287 14.4994 58.8979 14.9007 59.2634 15.4119C59.629 15.9285 59.809 16.4782 59.809 17.0608C59.809 17.6434 59.5526 17.8303 59.0452 17.6104C58.4614 16.731 57.6812 16.1649 56.6991 15.9065C55.717 15.6482 54.7131 15.5218 53.6928 15.5218C50.7793 15.5218 47.5766 16.4782 44.0793 18.3854C40.582 20.2927 37.4502 22.5297 34.684 25.0966C33.811 25.8331 32.6271 27.0973 31.1321 28.8946C29.6372 30.6919 28.2732 32.6542 27.0346 34.7813C25.7961 36.9084 25.1796 38.8541 25.1796 40.613C25.1796 41.5694 25.436 42.4103 25.9434 43.1469C26.2326 43.6635 26.7073 43.9164 27.362 43.9164C28.3823 43.9164 29.7463 43.3667 31.4595 42.2674C33.1672 41.1681 34.935 39.827 36.7573 38.2495C38.5741 36.6721 40.2328 35.1495 41.7277 33.682C43.2172 32.2145 44.2975 31.1481 44.9522 30.4886C45.3178 30.1203 46.0271 29.3728 47.0801 28.235C48.1331 27.0973 49.2843 25.8716 50.5229 24.5469C51.7614 23.2278 52.869 22.09 53.8565 21.1336C54.8386 20.1828 55.4769 19.7046 55.7661 19.7046C56.1317 19.7046 56.7318 19.798 57.5666 19.9794C58.4014 20.1608 59.1107 20.4411 59.6945 20.8039C60.2782 21.1721 60.3874 21.6503 60.0218 22.2329C58.1286 25.0196 56.6172 27.9382 55.4878 30.9833C54.3584 34.0283 53.6874 36.4302 53.4691 38.1946C53.3982 38.4859 53.36 38.7662 53.36 39.019V39.8435C53.36 42.7786 54.3803 44.2461 56.4208 44.2461C57.512 44.2461 58.9688 43.5866 60.7911 42.2674C62.608 40.9483 64.4685 39.3708 66.3617 37.535C68.255 35.6992 69.9845 33.9238 71.5504 32.198C73.1163 30.4776 74.1911 29.1694 74.7749 28.29C74.9932 28.0701 75.2114 27.9602 75.4296 27.9602C75.7188 27.9602 75.9753 28.0921 76.1935 28.345C76.4117 28.6033 76.4117 28.9166 76.1935 29.2794C75.3915 30.5985 74.2293 32.176 72.6962 34.0118C71.1685 35.8476 69.4553 37.6834 67.562 39.5137C65.6688 41.3495 63.8083 42.927 61.9914 44.2461C61.0421 44.9827 59.8418 45.6203 58.385 46.1754C56.9282 46.725 55.4715 46.9999 54.0147 46.9999H54.0311Z" fill="#ED7948"/>
</g>
<defs>
<clipPath id="clip0_34_60">
<rect width="180" height="47" fill="white"/>
</clipPath>
</defs>
</svg>
