<svg width="180" height="47" viewBox="0 0 180 47" fill="none" xmlns="http://www.w3.org/2000/svg">
<g clip-path="url(#clip0_31_119)">
<path d="M68.6751 7.24979C68.5823 7.28277 68.4787 7.28277 68.375 7.24979C68.2659 7.21132 68.1895 7.12337 68.1404 6.99146C68.0749 6.81557 68.1186 6.65068 68.2822 6.49678L76.6354 0.00549316C76.7773 0.181379 76.9137 0.357265 77.0337 0.516661C77.1537 0.676058 77.252 0.851944 77.3174 1.02233C77.4593 1.40159 77.4702 1.79183 77.3611 2.19307C77.181 2.78669 76.7609 3.20991 76.1007 3.45725C75.6915 3.56169 75.0914 3.76505 74.2948 4.06736C72.4616 4.75991 70.923 5.57338 69.6899 6.50228C69.0897 6.95848 68.7515 7.21132 68.6805 7.25529L68.6751 7.24979Z" fill="black"/>
<path d="M26.0526 10.053L25.5342 9.75621C23.4773 8.56898 21.6877 8.0633 19.5544 8.0633C15.2933 8.0633 11.7141 10.5642 9.04065 15.3516V7.63458L7.40929 8.51951C6.38356 9.07465 5.39056 9.48688 4.38665 9.77819C3.09903 10.13 1.96417 10.3168 1.10212 10.3168H0V13.1915H1.42948C2.83168 13.1915 2.9408 17.6546 2.9408 19.0232V38.1947C2.9408 40.9924 2.72256 42.7788 2.29153 43.5098C2.12785 43.7846 2.0351 43.8341 1.23852 43.8341H0V46.7747H11.9869V43.8341H10.7538C9.95726 43.8341 9.86451 43.7846 9.70083 43.5098C9.2698 42.7788 9.05156 40.9869 9.05156 38.1947V22.332C10.7866 16.1101 14.1802 12.1032 17.7103 12.1032C20.8039 12.1032 22.8935 16.264 23.6519 18.0503L23.9847 18.8418L24.825 18.7209C25.1687 18.6714 25.2833 18.6439 25.4851 18.578C25.5397 18.5615 25.6106 18.534 25.7361 18.501L26.5982 18.2537L26.0526 10.064V10.053Z" fill="black"/>
<path d="M79.418 43.8725C78.6323 43.8725 78.5396 43.8231 78.3814 43.5537C77.9558 42.8337 77.743 41.0693 77.7375 38.3156V8.21716L76.128 9.0911C75.1186 9.63524 74.142 10.042 73.149 10.3278C71.8832 10.6741 70.7647 10.8609 69.9136 10.8609H68.8224V13.6916H70.23C71.6104 13.6916 71.7195 18.0888 71.7195 19.4354V38.3156C71.7195 41.0693 71.5068 42.8282 71.0812 43.5537C70.923 43.8231 70.8302 43.8725 70.0445 43.8725H68.8278V46.7691H80.6347V43.8725H79.418Z" fill="black"/>
<path d="M112.061 37.2109C111.75 40.5857 111.483 43.4988 102.393 43.4988H94.4985L116.383 8.58545H88.4259L87.6348 18.5945L90.4392 18.8748L90.521 17.7535C90.7775 14.3567 90.9957 11.4216 100.124 11.4216H107.517L85.567 46.3954H114.157L114.959 36.2105H112.154L112.061 37.2109Z" fill="black"/>
<path d="M145.032 37.0955C143.221 40.9814 139.975 43.1195 135.893 43.1195C128.119 43.1195 125.347 34.8474 125.347 27.1084C125.347 25.8498 125.412 24.5526 125.56 23.2664L142.964 23.6457L148.551 23.8161L148.284 22.4585C148.24 22.2496 148.24 22.0737 148.24 21.8483V21.7274C146.844 8.91524 136.395 8.26666 134.317 8.26666C125.314 8.26666 119.263 15.8407 119.263 27.1084C119.263 39.0137 125.32 46.7087 134.699 46.7087C137.372 46.7087 143.952 45.8843 147.389 38.2717L147.771 37.4197L145.567 35.9412L145.027 37.0955H145.032ZM134.257 11.0973C136.865 11.0973 141.208 12.3945 141.846 20.826L125.893 21.0569C126.913 15.6978 129.45 11.0973 134.257 11.0973Z" fill="black"/>
<path d="M168.564 24.6515C163.801 22.6673 159.687 20.9579 159.687 17.0939C159.687 14.7909 160.587 13.1035 162.372 12.0757C164.025 11.1248 165.749 11.0973 165.771 11.0973C170.588 11.0973 173.753 14.1918 175.733 20.8315L176.017 21.7879L176.988 21.59C177.174 21.5515 177.25 21.5351 177.321 21.5131C177.37 21.5021 177.425 21.4856 177.556 21.4636L178.489 21.2767L177.959 12.8397L177.632 12.5374C174.653 9.82216 170.348 8.26117 165.831 8.26117C157.865 8.26117 154.237 13.3948 154.237 18.1657C154.237 24.9813 160.009 27.2404 165.105 29.2356C169.906 31.1153 174.047 32.7368 174.047 37.4307C174.047 39.3655 173.382 43.8726 167.217 43.8726H166.775C161.837 43.8726 158.76 40.8605 156.49 33.7976L156.244 33.0391H155.197C155.017 33.0391 154.831 33.0611 154.537 33.16L153.735 33.4293L154.324 42.0752L154.651 42.372C156.665 44.1913 162.082 46.7087 167.015 46.7087C173.267 46.7087 179.995 43.3504 179.995 35.9797C179.995 29.4169 173.917 26.8831 168.559 24.6515H168.564Z" fill="black"/>
<path d="M54.0311 47C52.7926 47 51.6468 46.7087 50.5883 46.1206C49.5299 45.5325 48.7497 44.4332 48.2368 42.8173C48.0185 42.1577 47.9094 41.2398 47.9094 40.0635C47.9094 38.4531 48.1277 36.6503 48.5641 34.6715C49.0006 32.6928 49.4753 31.0054 49.9827 29.6093C49.6172 29.7577 48.9461 30.4008 47.964 31.5331C46.9819 32.6708 45.7816 34.0285 44.3575 35.6059C42.939 37.1834 41.3731 38.7609 39.6599 40.3384C37.9467 41.9158 36.1789 43.2185 34.3621 44.2463C32.5398 45.2742 30.7557 45.7853 29.0097 45.7853C27.8421 45.7853 26.6091 45.4391 25.2942 44.741C23.9847 44.043 22.9262 43.147 22.1242 42.0423C21.033 40.5747 20.4874 39.0687 20.4874 37.5297C20.4874 35.551 21.1585 33.4953 22.5061 31.3682C23.8538 29.2411 25.5997 27.1689 27.7494 25.1517C29.8991 23.1345 32.1906 21.2987 34.6294 19.6498C37.0683 18.0009 39.398 16.6048 41.6186 15.467C43.8392 14.3292 45.6397 13.5762 47.0255 13.2135C48.4823 12.7738 50.1191 12.5539 51.9414 12.5539C52.9617 12.5539 54.0147 12.6803 55.1114 12.9386C56.2026 13.197 57.1138 13.6202 57.8449 14.2028C58.4287 14.4996 58.8979 14.9009 59.2634 15.412C59.629 15.9287 59.809 16.4783 59.809 17.061C59.809 17.6436 59.5526 17.8305 59.0452 17.6106C58.4614 16.7312 57.6812 16.1651 56.6991 15.9067C55.717 15.6484 54.7131 15.522 53.6928 15.522C50.7793 15.522 47.5766 16.4783 44.0793 18.3856C40.582 20.2929 37.4502 22.5299 34.684 25.0968C33.811 25.8333 32.6271 27.0975 31.1321 28.8948C29.6372 30.6921 28.2732 32.6544 27.0346 34.7815C25.7961 36.9086 25.1796 38.8543 25.1796 40.6132C25.1796 41.5696 25.436 42.4105 25.9434 43.147C26.2326 43.6637 26.7073 43.9165 27.362 43.9165C28.3823 43.9165 29.7463 43.3669 31.4595 42.2676C33.1672 41.1683 34.935 39.8272 36.7573 38.2497C38.5741 36.6722 40.2328 35.1497 41.7277 33.6822C43.2172 32.2146 44.2975 31.1483 44.9522 30.4888C45.3178 30.1205 46.0271 29.373 47.0801 28.2352C48.1331 27.0975 49.2843 25.8718 50.5229 24.5471C51.7614 23.228 52.869 22.0902 53.8565 21.1338C54.8386 20.1829 55.4769 19.7048 55.7661 19.7048C56.1317 19.7048 56.7318 19.7982 57.5666 19.9796C58.4014 20.161 59.1107 20.4413 59.6945 20.804C60.2782 21.1723 60.3874 21.6505 60.0218 22.2331C58.1286 25.0198 56.6172 27.9384 55.4878 30.9834C54.3584 34.0285 53.6874 36.4304 53.4691 38.1948C53.3982 38.4861 53.36 38.7664 53.36 39.0192V39.8437C53.36 42.7788 54.3803 44.2463 56.4208 44.2463C57.512 44.2463 58.9688 43.5868 60.7911 42.2676C62.608 40.9485 64.4685 39.371 66.3617 37.5352C68.255 35.6994 69.9845 33.924 71.5504 32.1981C73.1163 30.4778 74.1911 29.1696 74.7749 28.2902C74.9932 28.0703 75.2114 27.9604 75.4296 27.9604C75.7188 27.9604 75.9753 28.0923 76.1935 28.3451C76.4117 28.6035 76.4117 28.9168 76.1935 29.2795C75.3915 30.5987 74.2293 32.1762 72.6962 34.012C71.1685 35.8478 69.4553 37.6836 67.562 39.5139C65.6688 41.3497 63.8083 42.9272 61.9914 44.2463C61.0421 44.9828 59.8418 45.6204 58.385 46.1756C56.9282 46.7252 55.4715 47 54.0147 47H54.0311Z" fill="#EC92F6"/>
</g>
<defs>
<clipPath id="clip0_31_119">
<rect width="180" height="47" fill="white"/>
</clipPath>
</defs>
</svg>
