<svg width="216" height="70" viewBox="0 0 216 70" fill="none" xmlns="http://www.w3.org/2000/svg">
<path d="M61.7595 6.68929C61.7595 3.06761 58.7948 0.128052 55.1337 0.128052C55.1185 0.128052 55.0994 0.128052 55.0842 0.128052C55.069 0.128052 55.0499 0.128052 55.0347 0.128052H4.33854C1.94092 0.13182 0 2.05384 0 4.42809V68.386C0 69.0531 0.814427 69.3885 1.29395 68.9174L7.53916 63.6375L18.5872 52.6971H55.0804C55.0804 52.6971 55.0994 52.6971 55.107 52.6971C55.1146 52.6971 55.1261 52.6971 55.1337 52.6971C58.791 52.6971 61.7595 49.7613 61.7595 46.1359C61.7595 46.1283 61.7595 46.117 61.7595 46.1095C61.7595 46.1019 61.7595 46.0906 61.7595 46.0831V6.78727C61.7595 6.78727 61.7595 6.75336 61.7595 6.73828C61.7595 6.72321 61.7595 6.70436 61.7595 6.68929ZM47.899 25.0653C47.4994 28.9281 45.4481 32.2596 42.472 34.7771C42.3845 34.8525 42.2893 34.9203 42.198 34.9957C41.3074 35.7193 40.356 36.3562 39.3475 36.9139C37.5854 37.8825 35.8386 38.5081 34.1983 38.9226C31.5838 39.5784 29.2471 39.6839 27.5649 39.7442C26.975 39.7668 24.4518 39.7668 19.4092 39.7668C19.1086 39.7668 18.6024 39.7668 18.3094 39.7668C18.4464 39.65 18.6443 39.4691 18.8574 39.2279C19.9687 37.9993 20.6537 36.5446 21.0533 34.9957C21.7155 32.4368 21.6052 29.614 21.354 27.0966C21.1827 25.3442 20.9924 23.5804 21.1599 21.8242C21.3844 19.4726 22.4881 17.2378 24.0522 15.4175C24.6193 14.758 25.2472 14.1475 25.9209 13.6123C28.3223 11.6941 31.3707 10.6351 34.4761 10.6351C35.6255 10.6351 36.7748 10.7745 37.8861 11.0572C40.6224 11.7506 43.0923 13.2995 44.8886 15.4175C45.0409 15.5946 45.1893 15.7755 45.3301 15.964C47.0503 18.2252 47.9675 20.98 47.9599 23.7802C47.9599 24.2098 47.937 24.6356 47.8914 25.0653H47.899Z" fill="#F8F5EC"/>
<path d="M86.9002 0.00753732C88.0191 0.00753732 89.0542 0.192202 90.0019 0.565299C90.9495 0.938396 91.7677 1.47355 92.4566 2.17452C93.1454 2.87549 93.6858 3.74228 94.074 4.77112C94.4622 5.79997 94.6563 6.97579 94.6563 8.29105C94.6563 8.80359 94.5992 9.14654 94.4888 9.31613C94.3784 9.48572 94.1691 9.57239 93.8609 9.57239H81.4123C81.4351 10.7444 81.5988 11.762 81.8918 12.625C82.1887 13.4918 82.5921 14.2116 83.1097 14.792C83.6273 15.3724 84.2438 15.8058 84.9554 16.0922C85.6709 16.3786 86.4701 16.5218 87.3569 16.5218C88.1827 16.5218 88.8944 16.4276 89.4881 16.2392C90.0856 16.0507 90.5994 15.8472 91.0294 15.6249C91.4595 15.4063 91.821 15.2028 92.1102 15.0106C92.3995 14.8221 92.6506 14.7279 92.86 14.7279C93.1302 14.7279 93.3395 14.8334 93.4879 15.0407L94.1844 15.9339C94.3176 16.1035 94.3137 16.3522 94.1653 16.5067C93.8152 16.8798 93.408 17.2077 92.9551 17.4979C92.3881 17.8559 91.7829 18.1536 91.136 18.3835C90.489 18.6134 89.823 18.7905 89.1303 18.9036C88.4415 19.0204 87.7565 19.077 87.079 19.077C85.7851 19.077 84.5939 18.8621 83.5055 18.4287C82.417 17.9953 81.4732 17.3622 80.6778 16.5256C79.8824 15.6889 79.2659 14.6563 78.8206 13.424C78.3791 12.1916 78.1546 10.7784 78.1546 9.18045C78.1546 7.8878 78.3563 6.68183 78.7559 5.55877C79.1555 4.43571 79.7302 3.4634 80.4837 2.64183C81.2334 1.82026 82.1506 1.17205 83.2353 0.704739C84.3199 0.233657 85.5377 0 86.8926 0L86.9002 0.00753732ZM86.9725 2.4044C85.3855 2.4044 84.1334 2.86041 83.2238 3.76866C82.3143 4.67691 81.7472 5.93564 81.5227 7.54486H91.6992C91.6992 6.78736 91.5926 6.09769 91.3833 5.46832C91.174 4.83896 90.8658 4.29627 90.4585 3.84026C90.0513 3.38426 89.5566 3.03 88.9705 2.78127C88.3844 2.53254 87.7184 2.4044 86.9649 2.4044H86.9725Z" fill="#F8F5EC"/>
<path d="M101.8 0.301514C102.051 0.301514 102.256 0.505021 102.256 0.753753V12.1163C102.256 13.5182 102.584 14.6036 103.234 15.3724C104.087 16.3748 105.506 16.7253 107.493 16.4163C108.905 16.0131 110.157 15.1953 111.253 13.9629V0.753753C111.253 0.505021 111.459 0.301514 111.71 0.301514H114.085C114.336 0.301514 114.541 0.505021 114.541 0.753753V18.376C114.541 18.6247 114.336 18.8282 114.085 18.8282H112.581C112.113 18.8282 111.816 18.6021 111.695 18.1499L111.436 16.1563C110.621 17.0457 109.712 17.7617 108.703 18.3044C107.695 18.8471 106.534 19.1184 105.232 19.1184C104.209 19.1184 103.307 18.9488 102.527 18.6172C101.746 18.2818 101.088 17.8107 100.559 17.2002C100.03 16.5897 99.6342 15.8548 99.3678 14.988C99.1014 14.1212 98.972 13.1639 98.972 12.1163V0.753753C98.972 0.505021 99.1775 0.301514 99.4286 0.301514H101.803H101.8Z" fill="#F8F5EC"/>
<path d="M139.374 3.35414C139.225 3.62171 138.997 3.75738 138.689 3.75738C138.502 3.75738 138.293 3.68955 138.061 3.55765C137.825 3.42197 137.539 3.275 137.201 3.10917C136.862 2.94335 136.458 2.79261 135.99 2.65317C135.522 2.51373 134.967 2.44212 134.327 2.44212C133.772 2.44212 133.273 2.51373 132.832 2.65317C132.39 2.79261 132.01 2.98481 131.697 3.22977C131.382 3.47474 131.142 3.75738 130.978 4.08149C130.811 4.40559 130.731 4.75608 130.731 5.13295C130.731 5.6078 130.868 6.00351 131.146 6.32007C131.423 6.63664 131.789 6.91175 132.245 7.14164C132.702 7.37153 133.22 7.5788 133.798 7.75593C134.377 7.93306 134.97 8.12149 135.579 8.32123C136.188 8.52097 136.782 8.74332 137.36 8.98828C137.939 9.23325 138.456 9.53851 138.913 9.90407C139.37 10.2696 139.735 10.7181 140.013 11.2495C140.291 11.7809 140.428 12.4178 140.428 13.1602C140.428 14.0157 140.272 14.8033 139.967 15.5269C139.659 16.2543 139.202 16.8799 138.601 17.4112C137.996 17.9426 137.258 18.3609 136.386 18.6624C135.511 18.9677 134.502 19.1184 133.357 19.1184C132.051 19.1184 130.868 18.9074 129.81 18.4891C128.889 18.1235 128.09 17.6675 127.412 17.1248C127.237 16.9854 127.203 16.7291 127.321 16.5407L127.888 15.6287C127.987 15.4704 128.105 15.3498 128.238 15.2631C128.375 15.1764 128.554 15.135 128.775 15.135C128.995 15.135 129.231 15.2216 129.475 15.3912C129.722 15.5608 130.019 15.7493 130.369 15.9565C130.719 16.1638 131.146 16.3522 131.644 16.5218C132.143 16.6914 132.767 16.7781 133.52 16.7781C134.16 16.7781 134.723 16.6952 135.203 16.5294C135.682 16.3636 136.082 16.1412 136.401 15.8623C136.721 15.5834 136.957 15.2593 137.113 14.8938C137.265 14.5282 137.345 14.1363 137.345 13.7217C137.345 13.2092 137.208 12.7871 136.93 12.4517C136.653 12.1163 136.287 11.8299 135.83 11.5924C135.374 11.355 134.856 11.1477 134.27 10.9706C133.684 10.7935 133.087 10.6088 132.478 10.4128C131.869 10.2169 131.271 9.99452 130.685 9.74578C130.099 9.49705 129.581 9.18049 129.125 8.80362C128.668 8.42675 128.303 7.95944 128.025 7.40545C127.747 6.85145 127.61 6.17686 127.61 5.38545C127.61 4.67694 127.759 3.99858 128.055 3.3466C128.352 2.69462 128.782 2.12179 129.349 1.62809C129.916 1.1344 130.613 0.742457 131.435 0.448501C132.261 0.154546 133.201 0.00756836 134.263 0.00756836C135.496 0.00756836 136.599 0.19977 137.577 0.584173C138.43 0.919584 139.18 1.36052 139.83 1.91074C139.998 2.05395 140.032 2.29891 139.914 2.48735L139.377 3.35414H139.374Z" fill="#F8F5EC"/>
<path d="M152.344 0.00756836C153.71 0.00756836 154.943 0.233688 156.047 0.685927C157.15 1.13817 158.083 1.77884 158.855 2.60794C159.624 3.43705 160.214 4.43951 160.629 5.61533C161.04 6.79115 161.249 8.10642 161.249 9.55735C161.249 11.0083 161.043 12.3386 160.629 13.5069C160.218 14.679 159.624 15.6777 158.855 16.5068C158.086 17.3359 157.15 17.9728 156.047 18.4175C154.943 18.8622 153.71 19.0845 152.344 19.0845C150.977 19.0845 149.74 18.8622 148.641 18.4175C147.537 17.9728 146.601 17.3359 145.824 16.5068C145.048 15.6777 144.45 14.679 144.032 13.5069C143.613 12.3349 143.404 11.0196 143.404 9.55735C143.404 8.09511 143.613 6.79115 144.032 5.61533C144.45 4.43951 145.048 3.43705 145.824 2.60794C146.601 1.77884 147.541 1.13817 148.641 0.685927C149.744 0.233688 150.977 0.00756836 152.344 0.00756836ZM152.344 16.5407C154.189 16.5407 155.571 15.9264 156.48 14.7016C157.39 13.4768 157.847 11.7658 157.847 9.57242C157.847 7.37907 157.39 5.64548 156.48 4.41313C155.571 3.18078 154.189 2.56649 152.344 2.56649C151.407 2.56649 150.597 2.72477 149.904 3.04134C149.215 3.35791 148.641 3.81768 148.176 4.41313C147.716 5.01235 147.369 5.74724 147.141 6.6178C146.913 7.48836 146.799 8.47575 146.799 9.57242C146.799 10.6691 146.913 11.6527 147.141 12.5157C147.369 13.3825 147.712 14.1099 148.176 14.7016C148.637 15.2933 149.211 15.7455 149.904 16.0658C150.593 16.3824 151.407 16.5407 152.344 16.5407Z" fill="#F8F5EC"/>
<path d="M167.292 0.301514C167.544 0.301514 167.749 0.505021 167.749 0.753753V12.1163C167.749 13.5182 168.076 14.6036 168.727 15.3724C169.58 16.3748 170.999 16.7253 172.986 16.4163C174.398 16.0131 175.65 15.1953 176.746 13.9629V0.753753C176.746 0.505021 176.951 0.301514 177.203 0.301514H179.577C179.829 0.301514 180.034 0.505021 180.034 0.753753V18.376C180.034 18.6247 179.829 18.8282 179.577 18.8282H178.074C177.606 18.8282 177.309 18.6021 177.187 18.1499L176.929 16.1563C176.114 17.0457 175.205 17.7617 174.196 18.3044C173.188 18.8471 172.027 19.1184 170.725 19.1184C169.702 19.1184 168.8 18.9488 168.019 18.6172C167.239 18.2818 166.581 17.8107 166.052 17.2002C165.523 16.5897 165.127 15.8548 164.861 14.988C164.594 14.1212 164.465 13.1639 164.465 12.1163V0.753753C164.465 0.505021 164.67 0.301514 164.922 0.301514H167.296H167.292Z" fill="#F8F5EC"/>
<path d="M78.1622 68.6008V35.4743C78.1622 35.2256 78.3677 35.0221 78.6189 35.0221H81.9755C82.379 35.0221 82.7253 35.1125 83.0107 35.2972C83.2961 35.4819 83.4826 35.7645 83.5663 36.1489L84.0725 38.5232C85.1153 37.3398 86.3141 36.3826 87.6689 35.6477C89.0238 34.9128 90.6108 34.5472 92.4299 34.5472C93.8456 34.5472 95.1358 34.8374 96.3079 35.4216C97.4763 36.0057 98.4886 36.8499 99.3373 37.9579C100.186 39.0659 100.844 40.4339 101.309 42.0582C101.773 43.6825 102.001 45.548 102.001 47.6471C102.001 49.5654 101.739 51.3404 101.217 52.9722C100.696 54.604 99.95 56.0211 98.9834 57.2233C98.0167 58.4217 96.8445 59.3601 95.4745 60.0347C94.1006 60.7093 92.5669 61.0485 90.8657 61.0485C89.4005 61.0485 88.1599 60.8261 87.1399 60.3852C86.12 59.9442 85.2104 59.3299 84.3998 58.5461V68.5971C84.3998 68.8458 84.1943 69.0493 83.9431 69.0493H78.6189C78.3677 69.0493 78.1622 68.8458 78.1622 68.5971V68.6008ZM90.2835 39.4239C88.9857 39.4239 87.882 39.6952 86.9649 40.2379C86.0895 40.7542 85.2675 41.474 84.5064 42.3974C84.4379 42.4803 84.3998 42.582 84.3998 42.6875V54.0274C85.1077 54.8942 85.8764 55.4972 86.7099 55.8402C87.5433 56.1831 88.4415 56.3527 89.4005 56.3527C90.3596 56.3527 91.1968 56.1793 91.9618 55.8289C92.7267 55.4784 93.3775 54.947 93.9065 54.2272C94.4355 53.5111 94.8427 52.6067 95.132 51.5137C95.4174 50.4208 95.562 49.1357 95.562 47.6509C95.562 46.166 95.4402 44.8809 95.1967 43.837C94.9531 42.7968 94.603 41.9489 94.1501 41.3007C93.6972 40.6525 93.1454 40.1739 92.4946 39.8761C91.8476 39.5746 91.1093 39.4277 90.2835 39.4277V39.4239Z" fill="#F8F5EC"/>
<path d="M113.719 35.4029V60.3024C113.719 60.5097 113.548 60.6793 113.339 60.6793H107.862C107.653 60.6793 107.482 60.5097 107.482 60.3024V35.4029C107.482 35.1956 107.653 35.026 107.862 35.026H113.339C113.548 35.026 113.719 35.1956 113.719 35.4029Z" fill="#F8F5EC"/>
<path d="M121.46 60.227V35.4782C121.46 35.2295 121.666 35.0259 121.917 35.0259H125.273C126.08 35.0259 126.613 35.399 126.864 36.1528L127.294 38.1765C127.816 37.6452 128.367 37.159 128.95 36.7256C129.532 36.2922 130.145 35.9191 130.792 35.5988C131.439 35.2822 132.135 35.041 132.873 34.8752C133.616 34.7094 134.422 34.6265 135.298 34.6265C136.713 34.6265 137.966 34.8639 139.058 35.3387C140.154 35.8136 141.063 36.4806 141.798 37.3399C142.529 38.1992 143.084 39.2242 143.465 40.4151C143.842 41.606 144.032 42.9213 144.032 44.3534V60.227C144.032 60.4757 143.826 60.6792 143.575 60.6792H138.251C138 60.6792 137.794 60.4757 137.794 60.227V44.3534C137.794 42.7856 137.429 41.5721 136.694 40.7166C135.964 39.8574 134.864 39.4277 133.399 39.4277C132.322 39.4277 131.313 39.6689 130.369 40.1513C129.479 40.6073 128.634 41.2216 127.835 41.9904C127.743 42.0771 127.694 42.1977 127.694 42.3221V60.2307C127.694 60.4795 127.488 60.683 127.237 60.683H121.913C121.662 60.683 121.456 60.4795 121.456 60.2307L121.46 60.227Z" fill="#F8F5EC"/>
<path d="M159.521 61.0785C157.283 61.0785 155.556 60.4492 154.345 59.1904C153.135 57.9317 152.526 56.1944 152.526 53.9784V39.6499H149.9C149.565 39.6499 149.272 39.5406 149.029 39.3258C148.755 39.0809 148.686 38.6927 148.663 38.3497C148.606 37.5508 148.526 36.3938 148.504 35.7456C148.492 35.4893 148.701 35.2783 148.96 35.2783H154.018C154.06 32.9266 154.102 31.0272 154.144 28.6756C154.212 28.344 154.368 28.0839 154.612 27.8993C154.855 27.7146 155.164 27.6241 155.533 27.6241H158.307C158.558 27.6241 158.764 27.8277 158.764 28.0764V35.2481H165.123C165.374 35.2481 165.58 35.4517 165.58 35.7004V39.1977C165.58 39.4464 165.374 39.6499 165.123 39.6499H158.764V53.5525C158.764 54.3515 158.966 54.9771 159.369 55.4293C159.772 55.8778 160.313 56.1039 160.986 56.1039C161.375 56.1039 161.698 56.0587 161.957 55.9682C162.216 55.8778 162.444 55.7798 162.638 55.6818C162.832 55.5801 163.003 55.4858 163.156 55.3954C163.308 55.3049 163.46 55.2597 163.609 55.2597C163.795 55.2597 163.943 55.3049 164.061 55.3954C164.179 55.4858 164.305 55.6253 164.442 55.8062L166.097 58.4631C166.219 58.6591 166.177 58.9191 165.991 59.0585C165.157 59.6841 164.221 60.1703 163.178 60.5095C161.999 60.8939 160.781 61.0861 159.517 61.0861L159.521 61.0785Z" fill="#F8F5EC"/>
<path d="M181.945 34.6265C183.882 34.6265 185.636 34.9355 187.208 35.5536C188.78 36.1716 190.123 37.0459 191.234 38.1803C192.346 39.3147 193.206 40.6978 193.811 42.3296C194.416 43.9652 194.72 45.7892 194.72 47.8055C194.72 49.8217 194.416 51.6721 193.811 53.3077C193.206 54.9433 192.346 56.3339 191.234 57.4834C190.123 58.6328 188.78 59.5185 187.208 60.1328C185.632 60.7508 183.878 61.0561 181.945 61.0561C180.011 61.0561 178.249 60.747 176.666 60.1328C175.083 59.5147 173.732 58.6328 172.613 57.4834C171.494 56.3339 170.626 54.9433 170.014 53.3077C169.401 51.6759 169.093 49.8405 169.093 47.8055C169.093 45.7704 169.401 43.9652 170.014 42.3296C170.626 40.6978 171.494 39.3109 172.613 38.1803C173.732 37.0459 175.083 36.1716 176.666 35.5536C178.249 34.9355 180.007 34.6265 181.945 34.6265ZM181.945 56.3038C184.099 56.3038 185.693 55.5877 186.728 54.1519C187.764 52.7198 188.281 50.6169 188.281 47.8507C188.281 45.0845 187.764 42.974 186.728 41.5231C185.693 40.0722 184.099 39.3486 181.945 39.3486C179.791 39.3486 178.139 40.0797 177.096 41.5382C176.053 42.9967 175.532 45.0996 175.532 47.8507C175.532 50.6018 176.053 52.6972 177.096 54.1406C178.139 55.584 179.756 56.3038 181.945 56.3038Z" fill="#F8F5EC"/>
<path d="M199.12 60.2269V35.4781C199.12 35.2294 199.325 35.0259 199.576 35.0259H202.781C203.42 35.0259 203.866 35.1427 204.121 35.3764C204.372 35.61 204.539 36.0095 204.627 36.5748L205.007 39.6764C205.932 38.0936 207.017 36.8424 208.265 35.9266C209.475 35.0334 210.925 34.5548 212.436 34.551C213.597 34.551 214.579 34.7847 215.382 35.2633C215.542 35.3575 215.618 35.5459 215.583 35.7231L214.826 40.0533C214.777 40.3548 214.666 40.5658 214.499 40.6902C214.331 40.8145 214.103 40.8786 213.818 40.8786C213.566 40.8786 213.22 40.8221 212.782 40.7052C212.345 40.5884 211.762 40.5319 211.039 40.5319C209.742 40.5319 208.63 40.8861 207.706 41.5946C206.781 42.3032 205.997 43.3395 205.357 44.7076V60.2344C205.357 60.4832 205.152 60.6867 204.901 60.6867H199.576C199.325 60.6867 199.12 60.4832 199.12 60.2344V60.2269Z" fill="#F8F5EC"/>
<path d="M107.581 32.0486L107.615 28.1292C107.615 27.8654 107.866 27.6506 108.167 27.6543L113.068 27.6958C113.373 27.6958 113.616 27.9144 113.613 28.1782L113.578 32.0976C113.578 32.3614 113.327 32.5762 113.027 32.5724L108.125 32.531C107.82 32.531 107.577 32.3124 107.581 32.0486Z" fill="#F8F5EC"/>
</svg>
