<svg width="241" height="241" viewBox="0 0 241 241" fill="none" xmlns="http://www.w3.org/2000/svg">
<path d="M222.635 103.927C243.798 91.0166 239.615 77.1842 214.876 78.0613C231.968 60.1128 224.344 47.8548 200.685 55.0747C212.56 33.3251 202.012 23.4512 181.029 36.5639C186.854 12.4751 174.125 5.66011 157.235 23.766C156.628 -1.24488 142.302 -4.37124 130.607 18.1656C123.545 -6.23807 108.882 -5.96816 103.395 18.458C90.3731 -2.59439 76.5419 1.61158 77.5539 26.3751C59.5171 9.41625 47.2602 17.041 54.6594 40.7024C32.8443 28.9841 22.9713 39.5328 36.2403 60.4502C12.1313 54.7823 5.33937 67.5127 23.5785 84.3141C-0.912775 85.0563 -4.37619 98.8663 16.8766 110.292C-6.19786 117.355 -5.52317 131.569 18.3609 137.08C-2.80191 149.99 1.38118 163.823 26.1199 162.946C9.02769 180.894 16.6517 193.152 40.3109 185.932C28.4363 207.682 38.984 217.556 59.9669 204.443C54.1421 228.532 66.8713 235.347 83.7611 217.241C84.3683 242.252 98.6943 245.378 110.389 222.819C117.451 247.222 132.114 246.953 137.602 222.526C150.623 243.579 164.454 239.373 163.42 214.609C181.456 231.568 193.713 223.943 186.314 200.282C208.129 212 218.002 201.452 204.733 180.512C228.82 186.18 235.634 173.449 217.395 156.648C241.909 155.906 245.327 142.096 224.075 130.647C247.149 123.585 246.474 109.37 222.59 103.859L222.635 103.927Z" fill="#DDE26F"/>
</svg>
